<svg xmlns="http://www.w3.org/2000/svg" viewBox="0 0 60 60"><defs><linearGradient id="a" x1="50%" y1="100%" x2="50%" y2="0%"><stop offset="0%" stop-color="#4c3ecd"/><stop offset="100%" stop-color="#038dce"/></linearGradient></defs><path fill="url(#a)" d="M17 0H8C2.5 0 0 2.5 0 8v9c0 5.5 2.5 8 8 8h9c5.5 0 8-2.5 8-8V8c0-5.5-2.5-8-8-8zm35 0h-9c-5.5 0-8 2.5-8 8v9c0 5.5 2.5 8 8 8h9c5.5 0 8-2.5 8-8V8c0-5.5-2.5-8-8-8zM17 35H8c-5.5 0-8 2.5-8 8v9c0 5.5 2.5 8 8 8h9c5.5 0 8-2.5 8-8v-9c0-5.5-2.5-8-8-8zm35 0h-9c-5.5 0-8 2.5-8 8v9c0 5.5 2.5 8 8 8h9c5.5 0 8-2.5 8-8v-9c0-5.5-2.5-8-8-8z"/></svg>