<svg xmlns="http://www.w3.org/2000/svg" width="193" height="61"><defs><filter filterUnits="userSpaceOnUse" id="a" x="0" y="0" width="193" height="61"><feOffset in="SourceAlpha" dy="5"/><feGaussianBlur result="blurOut" stdDeviation="3.873"/><feFlood flood-color="#2B9BCF" result="floodOut"/><feComposite operator="atop" in="floodOut" in2="blurOut"/><feComponentTransfer><feFuncA type="linear" slope=".3"/></feComponentTransfer><feMerge><feMergeNode/><feMergeNode in="SourceGraphic"/></feMerge></filter><linearGradient id="b" x1="0%" x2="17.365%" y1="98.481%" y2="0%"><stop offset="0%" stop-color="#776BE2"/><stop offset="100%" stop-color="#2B9BCF"/></linearGradient></defs><path fill-rule="evenodd" fill="#5ABE06" d="M174 41H27.594a4 4 0 0 1-4-4v-6.038l-9.584-5.466 9.584-5.465V13a4 4 0 0 1 4-4H174a4 4 0 0 1 4 4v24a4 4 0 0 1-4 4z" filter="url(#a)"/><path fill="url(#b)" d="M174 41H27.594a4 4 0 0 1-4-4v-6.038l-9.584-5.466 9.584-5.465V13a4 4 0 0 1 4-4H174a4 4 0 0 1 4 4v24a4 4 0 0 1-4 4z"/></svg>