<svg xmlns="http://www.w3.org/2000/svg" width="160" height="30" viewBox="0 0 971 166"><defs><filter id="a" x="614" y="35" width="105" height="90" filterUnits="userSpaceOnUse"><feFlood result="flood" flood-color="#0042ff"/><feComposite result="composite" operator="in" in2="SourceGraphic"/><feBlend result="blend" in2="SourceGraphic"/></filter><filter id="b" x="667" y="35" width="52" height="90" filterUnits="userSpaceOnUse"><feFlood result="flood" flood-color="#002fb9"/><feComposite result="composite" operator="in" in2="SourceGraphic"/><feBlend result="blend" in2="SourceGraphic"/></filter><filter id="c" x="643" y="85" width="48" height="40" filterUnits="userSpaceOnUse"><feFlood result="flood" flood-color="#0a138e"/><feComposite result="composite" operator="in" in2="SourceGraphic"/><feBlend result="blend" in2="SourceGraphic"/></filter></defs><path data-name="boost c mp" d="M7.722.624a4.774 4.774 0 0 1 3.384 1.248A4.472 4.472 0 0 1 12.443 5.3v48.664a36.522 36.522 0 0 1 14.244-13.023 42.8 42.8 0 0 1 20.224-4.757 44.954 44.954 0 0 1 22.506 5.693 41.5 41.5 0 0 1 15.818 15.674A43.611 43.611 0 0 1 90.98 79.7a43.9 43.9 0 0 1-5.745 22.3 41.46 41.46 0 0 1-15.817 15.675 44.926 44.926 0 0 1-22.506 5.693 44.844 44.844 0 0 1-22.112-5.537 41.349 41.349 0 0 1-15.819-15.363A43.134 43.134 0 0 1 3 80.633V5.3a4.61 4.61 0 0 1 1.259-3.428A4.7 4.7 0 0 1 7.722.624zm39.189 114.01a34.274 34.274 0 0 0 17.628-4.6 33.76 33.76 0 0 0 12.433-12.556A35.088 35.088 0 0 0 81.536 79.7a35.088 35.088 0 0 0-4.564-17.78 33.194 33.194 0 0 0-12.433-12.479 34.748 34.748 0 0 0-17.628-4.523 34.735 34.735 0 0 0-17.627 4.523 32.594 32.594 0 0 0-12.355 12.477A35.561 35.561 0 0 0 12.443 79.7a35.561 35.561 0 0 0 4.485 17.78 33.143 33.143 0 0 0 12.355 12.555 34.261 34.261 0 0 0 17.627 4.6zm107.024-78.45a44.943 44.943 0 0 0-22.507 5.693 41.465 41.465 0 0 0-15.817 15.674 43.886 43.886 0 0 0-5.745 22.3A43.572 43.572 0 0 0 115.611 102a41.425 41.425 0 0 0 15.817 15.675 47.024 47.024 0 0 0 44.856 0A41.459 41.459 0 0 0 192.1 102a43.6 43.6 0 0 0 5.745-22.146 43.916 43.916 0 0 0-5.745-22.3 41.5 41.5 0 0 0-15.817-15.674 44.64 44.64 0 0 0-22.349-5.693zm0 8.734a34.3 34.3 0 0 1 17.627 4.6 33.173 33.173 0 0 1 12.355 12.555 35.566 35.566 0 0 1 4.486 17.78 35.566 35.566 0 0 1-4.486 17.78 32.6 32.6 0 0 1-12.355 12.478 36.611 36.611 0 0 1-35.255 0 33.146 33.146 0 0 1-12.433-12.478 35.058 35.058 0 0 1-4.565-17.78 35.058 35.058 0 0 1 4.565-17.78 33.733 33.733 0 0 1 12.433-12.555 34.287 34.287 0 0 1 17.628-4.6zM260.8 36.184a44.943 44.943 0 0 0-22.507 5.693 41.465 41.465 0 0 0-15.817 15.674 43.886 43.886 0 0 0-5.745 22.3A43.572 43.572 0 0 0 222.475 102a41.425 41.425 0 0 0 15.817 15.675 47.024 47.024 0 0 0 44.856 0A41.459 41.459 0 0 0 298.965 102a43.6 43.6 0 0 0 5.745-22.146 43.916 43.916 0 0 0-5.745-22.3 41.5 41.5 0 0 0-15.817-15.674 44.64 44.64 0 0 0-22.348-5.696zm0 8.734a34.3 34.3 0 0 1 17.627 4.6 33.173 33.173 0 0 1 12.355 12.555 35.565 35.565 0 0 1 4.485 17.78 35.565 35.565 0 0 1-4.485 17.78 32.6 32.6 0 0 1-12.355 12.478 36.611 36.611 0 0 1-35.255 0 33.146 33.146 0 0 1-12.433-12.478 35.058 35.058 0 0 1-4.565-17.78 35.058 35.058 0 0 1 4.565-17.78 33.733 33.733 0 0 1 12.433-12.555 34.287 34.287 0 0 1 17.628-4.6zm96.948-8.734q-13.538 0-21.956 6.316t-8.42 17.7q0 8.579 7.791 14.661t23.057 8.266q24.08 3.434 24.08 15.754a13.392 13.392 0 0 1-5.9 11.23q-5.9 4.368-18.335 4.367-17.471 0-25.34-9.514a4.489 4.489 0 0 0-3.619-1.716 4.1 4.1 0 0 0-2.676.78 4.2 4.2 0 0 0-2.046 3.587 4.123 4.123 0 0 0 1.1 2.808 34.211 34.211 0 0 0 14.322 9.747 50.9 50.9 0 0 0 17.785 3.2 46.546 46.546 0 0 0 16.84-2.964 29.906 29.906 0 0 0 12.355-8.422 18.92 18.92 0 0 0 4.643-12.633 20.187 20.187 0 0 0-7.319-15.674q-7.318-6.47-24-8.812-12.749-1.872-18.178-5.615a11.569 11.569 0 0 1-5.43-9.982q0-6.082 5.666-10.216t15.266-4.133q14.479 0 22.507 10.138a4.792 4.792 0 0 0 3.934 2.027 7.193 7.193 0 0 0 2.361-.624q2.516-1.4 2.518-3.587a3.916 3.916 0 0 0-.944-2.651q-10.233-14.037-30.061-14.037zm93.8 76.734h-3.462q-8.971 0-14.637-5.693t-5.666-14.738V48.661h20.775a4.173 4.173 0 0 0 3.069-1.17 4.509 4.509 0 0 0 0-6.083 4.172 4.172 0 0 0-3.069-1.17h-20.774V14.817a4.73 4.73 0 0 0-1.338-3.509 4.82 4.82 0 0 0-3.541-1.326 4.611 4.611 0 0 0-3.384 1.326 4.718 4.718 0 0 0-1.338 3.509v25.422h-12.276a4.172 4.172 0 0 0-3.069 1.17 4.506 4.506 0 0 0 0 6.083 4.173 4.173 0 0 0 3.069 1.17h12.276v43.825a31.039 31.039 0 0 0 3.777 15.362 27.63 27.63 0 0 0 10.545 10.684 30.326 30.326 0 0 0 15.424 3.9h3.62a4.812 4.812 0 0 0 3.542-1.326 4.526 4.526 0 0 0 1.337-3.353 4.728 4.728 0 0 0-1.337-3.509 4.82 4.82 0 0 0-3.542-1.326zM560.461 36.5a43.872 43.872 0 0 0-22.034 5.537 38.918 38.918 0 0 0-15.188 15.441 45.784 45.784 0 0 0-5.43 22.381 44.117 44.117 0 0 0 5.588 22.069 40.22 40.22 0 0 0 15.5 15.518 44.554 44.554 0 0 0 22.349 5.615q17 0 28.33-10.45a5.8 5.8 0 0 0 1.889-4.211 7.247 7.247 0 0 0-2.991-5.615 6.727 6.727 0 0 0-4.092-1.4 9.921 9.921 0 0 0-5.823 2.183q-6.611 5.461-17.313 5.459a28.207 28.207 0 0 1-14.558-3.743 25.966 25.966 0 0 1-9.913-10.384 31.434 31.434 0 0 1-3.542-15.05q0-13.254 7.555-21.289t19.673-8.032a27.254 27.254 0 0 1 10.624 1.95 25.078 25.078 0 0 1 8.578 6.161 7.934 7.934 0 0 0 6.137 2.81 6.2 6.2 0 0 0 3.62-1.092q3.459-2.34 3.462-5.771a5.808 5.808 0 0 0-1.574-4.055A39.257 39.257 0 0 0 560.461 36.5zm266.3-.156a37.045 37.045 0 0 0-15.739 3.275 32.8 32.8 0 0 0-11.8 9.046 27.57 27.57 0 0 0-10.467-9.124 31.692 31.692 0 0 0-14.4-3.2 32.853 32.853 0 0 0-12.281 2.259 28.923 28.923 0 0 0-9.758 6.316 7.637 7.637 0 0 0-8.027-7.642 7.976 7.976 0 0 0-5.744 2.184 7.62 7.62 0 0 0-2.282 5.771v69.4a7.675 7.675 0 0 0 2.282 5.692 7.989 7.989 0 0 0 13.771-5.692V70.652q0-8.733 5.273-14.349a17.829 17.829 0 0 1 13.611-5.615q8.026 0 12.827 4.913t4.8 14.427v44.606a7.675 7.675 0 0 0 2.282 5.692 7.99 7.99 0 0 0 13.772-5.692V70.652q0-8.733 5.272-14.349a17.647 17.647 0 0 1 13.457-5.615q8.026 0 12.827 4.913t4.8 14.427v44.606a7.675 7.675 0 0 0 2.282 5.692 7.99 7.99 0 0 0 13.772-5.692V70.028q0-15.908-8.42-24.8t-22.113-8.89zm100.411.156a43.036 43.036 0 0 0-21.956 5.693 42.134 42.134 0 0 0-15.581 15.6 43.172 43.172 0 0 0-5.745 22.069v71.119a7.616 7.616 0 0 0 2.283 5.771 8.754 8.754 0 0 0 11.568 0 7.769 7.769 0 0 0 2.2-5.771v-42.11a38.466 38.466 0 0 0 13.378 10.449 40.41 40.41 0 0 0 37.537-1.871 39.54 39.54 0 0 0 14.48-15.518 46.23 46.23 0 0 0 5.272-22.069 43.653 43.653 0 0 0-5.666-22.069 41.225 41.225 0 0 0-15.66-15.6 43.9 43.9 0 0 0-22.11-5.693zm0 72.523a27.1 27.1 0 0 1-24.238-14.271 30.535 30.535 0 0 1-3.62-14.895 31 31 0 0 1 3.62-14.973 27.9 27.9 0 0 1 38.482-10.528 27.539 27.539 0 0 1 10.072 10.528 30.493 30.493 0 0 1 3.7 14.973 30.042 30.042 0 0 1-3.7 14.895 27.657 27.657 0 0 1-10.072 10.45 27.16 27.16 0 0 1-14.244 3.821z" fill-rule="evenodd" fill="#fff"/><path data-name="Polygon 1" d="M666.51 34.995l-52.5 89.992h105.003z" filter="url(#a)" fill-rule="evenodd"/><path data-name="Polygon 1 copy 2" d="M667 34.995l.155 89.992h51.863z" filter="url(#b)" fill-rule="evenodd"/><path data-name="Polygon 2" d="M667 84.986L690.988 125h-47.983z" filter="url(#c)" fill-rule="evenodd"/></svg>